<svg id="visual" viewBox="0 0 1920 1080" width="1920" height="1080" xmlns="http://www.w3.org/2000/svg" xmlns:xlink="http://www.w3.org/1999/xlink" version="1.1"><path d="M0 174L29.2 166.8C58.3 159.7 116.7 145.3 174.8 156.2C233 167 291 203 349.2 224.5C407.3 246 465.7 253 523.8 240.3C582 227.7 640 195.3 698.2 177.3C756.3 159.3 814.7 155.7 872.8 170C931 184.3 989 216.7 1047.2 216.7C1105.3 216.7 1163.7 184.3 1221.8 179C1280 173.7 1338 195.3 1396.2 190C1454.3 184.7 1512.7 152.3 1570.8 150.5C1629 148.7 1687 177.3 1745.2 198.8C1803.3 220.3 1861.7 234.7 1890.8 241.8L1920 249L1920 0L1890.8 0C1861.7 0 1803.3 0 1745.2 0C1687 0 1629 0 1570.8 0C1512.7 0 1454.3 0 1396.2 0C1338 0 1280 0 1221.8 0C1163.7 0 1105.3 0 1047.2 0C989 0 931 0 872.8 0C814.7 0 756.3 0 698.2 0C640 0 582 0 523.8 0C465.7 0 407.3 0 349.2 0C291 0 233 0 174.8 0C116.7 0 58.3 0 29.2 0L0 0Z" fill="#6198ff"></path><path d="M0 357L29.2 346.3C58.3 335.7 116.7 314.3 174.8 307.2C233 300 291 307 349.2 326.7C407.3 346.3 465.7 378.7 523.8 380.5C582 382.3 640 353.7 698.2 337.5C756.3 321.3 814.7 317.7 872.8 323C931 328.3 989 342.7 1047.2 333.7C1105.3 324.7 1163.7 292.3 1221.8 296C1280 299.7 1338 339.3 1396.2 335.8C1454.3 332.3 1512.7 285.7 1570.8 287.5C1629 289.3 1687 339.7 1745.2 361.2C1803.3 382.7 1861.7 375.3 1890.8 371.7L1920 368L1920 247L1890.8 239.8C1861.7 232.7 1803.3 218.3 1745.2 196.8C1687 175.3 1629 146.7 1570.8 148.5C1512.7 150.3 1454.3 182.7 1396.2 188C1338 193.3 1280 171.7 1221.8 177C1163.7 182.3 1105.3 214.7 1047.2 214.7C989 214.7 931 182.3 872.8 168C814.7 153.7 756.3 157.3 698.2 175.3C640 193.3 582 225.7 523.8 238.3C465.7 251 407.3 244 349.2 222.5C291 201 233 165 174.8 154.2C116.7 143.3 58.3 157.7 29.2 164.8L0 172Z" fill="#3c80ff"></path><path d="M0 768L29.2 773.3C58.3 778.7 116.7 789.3 174.8 764.2C233 739 291 678 349.2 656.5C407.3 635 465.7 653 523.8 631.3C582 609.7 640 548.3 698.2 548.3C756.3 548.3 814.7 609.7 872.8 643.8C931 678 989 685 1047.2 677.7C1105.3 670.3 1163.7 648.7 1221.8 619.8C1280 591 1338 555 1396.2 551.5C1454.3 548 1512.7 577 1570.8 607.7C1629 638.3 1687 670.7 1745.2 663.5C1803.3 656.3 1861.7 609.7 1890.8 586.3L1920 563L1920 366L1890.8 369.7C1861.7 373.3 1803.3 380.7 1745.2 359.2C1687 337.7 1629 287.3 1570.8 285.5C1512.7 283.7 1454.3 330.3 1396.2 333.8C1338 337.3 1280 297.7 1221.8 294C1163.7 290.3 1105.3 322.7 1047.2 331.7C989 340.7 931 326.3 872.8 321C814.7 315.7 756.3 319.3 698.2 335.5C640 351.7 582 380.3 523.8 378.5C465.7 376.7 407.3 344.3 349.2 324.7C291 305 233 298 174.8 305.2C116.7 312.3 58.3 333.7 29.2 344.3L0 355Z" fill="#0066ff"></path><path d="M0 919L29.2 911.8C58.3 904.7 116.7 890.3 174.8 859.7C233 829 291 782 349.2 760.3C407.3 738.7 465.7 742.3 523.8 733.3C582 724.3 640 702.7 698.2 715.3C756.3 728 814.7 775 872.8 803.8C931 832.7 989 843.3 1047.2 845.2C1105.3 847 1163.7 840 1221.8 802.2C1280 764.3 1338 695.7 1396.2 672.2C1454.3 648.7 1512.7 670.3 1570.8 704.7C1629 739 1687 786 1745.2 793.2C1803.3 800.3 1861.7 767.7 1890.8 751.3L1920 735L1920 561L1890.8 584.3C1861.7 607.7 1803.3 654.3 1745.2 661.5C1687 668.7 1629 636.3 1570.8 605.7C1512.7 575 1454.3 546 1396.2 549.5C1338 553 1280 589 1221.8 617.8C1163.7 646.7 1105.3 668.3 1047.2 675.7C989 683 931 676 872.8 641.8C814.7 607.7 756.3 546.3 698.2 546.3C640 546.3 582 607.7 523.8 629.3C465.7 651 407.3 633 349.2 654.5C291 676 233 737 174.8 762.2C116.7 787.3 58.3 776.7 29.2 771.3L0 766Z" fill="#0059dd"></path><path d="M0 1081L29.2 1081C58.3 1081 116.7 1081 174.8 1081C233 1081 291 1081 349.2 1081C407.3 1081 465.7 1081 523.8 1081C582 1081 640 1081 698.2 1081C756.3 1081 814.7 1081 872.8 1081C931 1081 989 1081 1047.2 1081C1105.3 1081 1163.7 1081 1221.8 1081C1280 1081 1338 1081 1396.2 1081C1454.3 1081 1512.7 1081 1570.8 1081C1629 1081 1687 1081 1745.2 1081C1803.3 1081 1861.7 1081 1890.8 1081L1920 1081L1920 733L1890.8 749.3C1861.7 765.7 1803.3 798.3 1745.2 791.2C1687 784 1629 737 1570.8 702.7C1512.7 668.3 1454.3 646.7 1396.2 670.2C1338 693.7 1280 762.3 1221.8 800.2C1163.7 838 1105.3 845 1047.2 843.2C989 841.3 931 830.7 872.8 801.8C814.7 773 756.3 726 698.2 713.3C640 700.7 582 722.3 523.8 731.3C465.7 740.3 407.3 736.7 349.2 758.3C291 780 233 827 174.8 857.7C116.7 888.3 58.3 902.7 29.2 909.8L0 917Z" fill="#004cbb"></path></svg>